# xmcd
#
# Track frame offsets:
#	150
#	13668
#	35235
#	47583
#	66385
#	84735
#	101286
#	113491
#	133824
#	152374
#	166746
#	184634
#	198116
#	215569
#	231647
#	254829
#
# Disc length: 3561 seconds
#
# Revision: 0
# Processed by: cddbd v1.5.1PL2 Copyright (c) Steve Scherf et al.
# Submitted via: audiograbber 1.83.01
#
DISCID=dd0de710
DTITLE=Dm Bob and Country Jem - Bum Steer
DYEAR=2005
DGENRE=
TTITLE0=Bar-B-Q Bob
TTITLE1=Too Late For Tequila
TTITLE2=Girlfriend Stole My Alien
TTITLE3=Lou Short For Loser
TTITLE4=Groovy Situation
TTITLE5=Rockit Scyntist
TTITLE6=Space Hog
TTITLE7=Who Put The Cunt In Cuntrey
TTITLE8=How Can Evil Look So Good
TTITLE9=I've Been Your Good Thing
TTITLE10=Like It That Way
TTITLE11=Pachinko
TTITLE12=Rocket Ship
TTITLE13=Astro Pad
TTITLE14=Dixie Cannonball
TTITLE15=Home On The Moon
EXTD=
EXTT0=
EXTT1=
EXTT2=
EXTT3=
EXTT4=
EXTT5=
EXTT6=
EXTT7=
EXTT8=
EXTT9=
EXTT10=
EXTT11=
EXTT12=
EXTT13=
EXTT14=
EXTT15=
PLAYORDER=
